<svg xmlns="http://www.w3.org/2000/svg" width="96" height="96" viewBox="0 0 96 96">
  <defs>
    <linearGradient id="brass" x1="0" y1="0" x2="1" y2="1"><stop stop-color="#f6e2ab"/><stop offset=".45" stop-color="#bb9152"/><stop offset="1" stop-color="#71502e"/></linearGradient>
    <linearGradient id="velvet" x1="0" y1="0" x2="1" y2="1"><stop stop-color="#d26c50"/><stop offset=".48" stop-color="#a63f38"/><stop offset="1" stop-color="#572c35"/></linearGradient>
  </defs>
  <g stroke="#203b3e" stroke-linecap="round" stroke-linejoin="round" stroke-width="3.2">
    <path d="M19 67c0-17-5-30-10-39 13 0 23 8 30 18-1-14 2-27 9-35 9 9 11 22 9 35 7-11 17-18 30-18-6 10-11 23-10 39Z" fill="url(#velvet)"/>
    <path d="M39 46c-2 9-2 15-1 21h20c-1-7-2-14-1-21 2-13 0-26-9-35-7 8-10 21-9 35Z" fill="url(#brass)"/>
    <path d="M19 68h58v12H19z" fill="#203b3e"/>
    <circle cx="9" cy="28" r="5" fill="url(#brass)"/><circle cx="48" cy="11" r="5" fill="#f5e8c4"/><circle cx="87" cy="28" r="5" fill="url(#brass)"/>
  </g>
  <path d="M14 34c10 4 16 13 18 24m15-37c-4 13-4 27-3 39m38-26c-9 5-14 12-16 22M24 72h48" fill="none" stroke="#f0d497" stroke-width="1.3" opacity=".8" stroke-linecap="round"/>
</svg>
